<svg width="25" height="25" viewBox="0 0 25 25" fill="none" xmlns="http://www.w3.org/2000/svg">
<path fill-rule="evenodd" clip-rule="evenodd" d="M11.5 19.5C10.948 19.5 10.5 19.052 10.5 18.5C10.5 17.948 10.948 17.5 11.5 17.5C12.052 17.5 12.5 17.948 12.5 18.5C12.5 19.052 12.052 19.5 11.5 19.5ZM21.5 17.5H14.315C13.901 16.339 12.802 15.5 11.5 15.5C10.198 15.5 9.099 16.339 8.685 17.5H3.5C2.947 17.5 2.5 17.947 2.5 18.5C2.5 19.053 2.947 19.5 3.5 19.5H8.685C9.099 20.661 10.198 21.5 11.5 21.5C12.802 21.5 13.901 20.661 14.315 19.5H21.5C22.053 19.5 22.5 19.053 22.5 18.5C22.5 17.947 22.053 17.5 21.5 17.5ZM19.5 13.5C18.948 13.5 18.5 13.052 18.5 12.5C18.5 11.948 18.948 11.5 19.5 11.5C20.052 11.5 20.5 11.948 20.5 12.5C20.5 13.052 20.052 13.5 19.5 13.5ZM19.5 9.5C18.198 9.5 17.099 10.339 16.685 11.5H3.5C2.947 11.5 2.5 11.947 2.5 12.5C2.5 13.053 2.947 13.5 3.5 13.5H16.685C17.099 14.661 18.198 15.5 19.5 15.5C21.154 15.5 22.5 14.154 22.5 12.5C22.5 10.846 21.154 9.5 19.5 9.5ZM7.5 5.5C8.052 5.5 8.5 5.948 8.5 6.5C8.5 7.052 8.052 7.5 7.5 7.5C6.948 7.5 6.5 7.052 6.5 6.5C6.5 5.948 6.948 5.5 7.5 5.5ZM3.5 7.5H4.685C5.099 8.661 6.198 9.5 7.5 9.5C8.802 9.5 9.901 8.661 10.315 7.5H21.5C22.053 7.5 22.5 7.053 22.5 6.5C22.5 5.947 22.053 5.5 21.5 5.5H10.315C9.901 4.339 8.802 3.5 7.5 3.5C6.198 3.5 5.099 4.339 4.685 5.5H3.5C2.947 5.5 2.5 5.947 2.5 6.5C2.5 7.053 2.947 7.5 3.5 7.5Z" fill="#4E9FFF"/>
<mask id="mask0_127_6192" style="mask-type:luminance" maskUnits="userSpaceOnUse" x="2" y="3" width="21" height="19">
<path fill-rule="evenodd" clip-rule="evenodd" d="M11.5 19.5C10.948 19.5 10.5 19.052 10.5 18.5C10.5 17.948 10.948 17.5 11.5 17.5C12.052 17.5 12.5 17.948 12.5 18.5C12.5 19.052 12.052 19.5 11.5 19.5ZM21.5 17.5H14.315C13.901 16.339 12.802 15.5 11.5 15.5C10.198 15.5 9.099 16.339 8.685 17.5H3.5C2.947 17.5 2.5 17.947 2.5 18.5C2.5 19.053 2.947 19.5 3.5 19.5H8.685C9.099 20.661 10.198 21.5 11.5 21.5C12.802 21.5 13.901 20.661 14.315 19.5H21.5C22.053 19.5 22.5 19.053 22.5 18.5C22.5 17.947 22.053 17.5 21.5 17.5ZM19.5 13.5C18.948 13.5 18.5 13.052 18.5 12.5C18.5 11.948 18.948 11.5 19.5 11.5C20.052 11.5 20.5 11.948 20.5 12.5C20.5 13.052 20.052 13.5 19.5 13.5ZM19.5 9.5C18.198 9.5 17.099 10.339 16.685 11.5H3.5C2.947 11.5 2.5 11.947 2.5 12.5C2.5 13.053 2.947 13.5 3.5 13.5H16.685C17.099 14.661 18.198 15.5 19.5 15.5C21.154 15.5 22.5 14.154 22.5 12.5C22.5 10.846 21.154 9.5 19.5 9.5ZM7.5 5.5C8.052 5.5 8.5 5.948 8.5 6.5C8.5 7.052 8.052 7.5 7.5 7.5C6.948 7.5 6.5 7.052 6.5 6.5C6.5 5.948 6.948 5.5 7.5 5.5ZM3.5 7.5H4.685C5.099 8.661 6.198 9.5 7.5 9.5C8.802 9.5 9.901 8.661 10.315 7.5H21.5C22.053 7.5 22.5 7.053 22.5 6.5C22.5 5.947 22.053 5.5 21.5 5.5H10.315C9.901 4.339 8.802 3.5 7.5 3.5C6.198 3.5 5.099 4.339 4.685 5.5H3.5C2.947 5.5 2.5 5.947 2.5 6.5C2.5 7.053 2.947 7.5 3.5 7.5Z" fill="white"/>
</mask>
<g mask="url(#mask0_127_6192)">
<rect x="0.5" y="0.5" width="24" height="24" fill="#4E9FFF"/>
</g>
</svg>
